<svg xmlns="http://www.w3.org/2000/svg" width="30" height="30" viewBox="0 0 30 30"><g transform="translate(-150 -389)"><rect width="30" height="30" transform="translate(150 389)" fill="none"/><path d="M14.99-145A10,10,0,0,0,5-135a10,10,0,0,0,9.99,10A10.006,10.006,0,0,0,25-135a10.006,10.006,0,0,0-10.01-10ZM15-127a8,8,0,0,1-8-8,8,8,0,0,1,8-8,8,8,0,0,1,8,8,8,8,0,0,1-8,8Zm3.5-9a1.5,1.5,0,0,0,1.5-1.5,1.5,1.5,0,0,0-1.5-1.5,1.5,1.5,0,0,0-1.5,1.5,1.5,1.5,0,0,0,1.5,1.5Zm-7,0a1.5,1.5,0,0,0,1.5-1.5,1.5,1.5,0,0,0-1.5-1.5,1.5,1.5,0,0,0-1.5,1.5,1.5,1.5,0,0,0,1.5,1.5Zm3.5,6.5a5.5,5.5,0,0,0,5.11-3.5H9.89A5.5,5.5,0,0,0,15-129.5Z" transform="translate(150 539)" fill="#d9d9d9" fill-rule="evenodd"/></g></svg>