<svg xmlns="http://www.w3.org/2000/svg" width="30" height="30" viewBox="0 0 30 30"><g transform="translate(-150 -539)"><rect width="30" height="30" transform="translate(150 539)" fill="none"/><path d="M16.778-21.364a1.76,1.76,0,0,0-.258-.936L15-25l-1.52,2.7a1.76,1.76,0,0,0-.258.936A1.8,1.8,0,0,0,15-19.545,1.8,1.8,0,0,0,16.778-21.364Zm1.36,8.927-.96.973a3.1,3.1,0,0,1-4.347,0l-.951-.973-.969.973a3.019,3.019,0,0,1-2.169.918A3.041,3.041,0,0,1,7-11.1v4.191A.9.9,0,0,0,7.889-6H22.111A.9.9,0,0,0,23-6.909V-11.1a3.041,3.041,0,0,1-1.742.555,3.019,3.019,0,0,1-2.169-.918Zm-2.249-4.382v-1.818H14.111v1.818H9.667A2.694,2.694,0,0,0,7-14.091v.4a1.765,1.765,0,0,0,1.742,1.782,1.687,1.687,0,0,0,1.227-.518l1.9-1.936,1.893,1.936a1.754,1.754,0,0,0,2.462,0l1.9-1.936,1.893,1.936a1.7,1.7,0,0,0,1.227.518,1.765,1.765,0,0,0,1.742-1.782v-.4a2.681,2.681,0,0,0-2.658-2.727Z" transform="translate(150 570)" fill="#d9d9d9" fill-rule="evenodd"/></g></svg>