<svg xmlns="http://www.w3.org/2000/svg" width="30" height="30" viewBox="0 0 30 30"><g transform="translate(-4098 -3746)"><rect width="30" height="30" transform="translate(4098 3746)" fill="none"/><path d="M135-345a10,10,0,0,0-10,10,10,10,0,0,0,10,10,10,10,0,0,0,10-10,10,10,0,0,0-10-10Zm0,3a3,3,0,0,1,3,3,3,3,0,0,1-3,3,3,3,0,0,1-3-3,3,3,0,0,1,3-3Zm0,14.2a7.2,7.2,0,0,1-6-3.22c.03-1.99,4-3.08,6-3.08s5.97,1.09,6,3.08a7.2,7.2,0,0,1-6,3.22Z" transform="translate(3978 4096)" fill="#d9d9d9" fill-rule="evenodd"/></g></svg>