<svg xmlns="http://www.w3.org/2000/svg" width="30" height="30" viewBox="0 0 30 30"><g transform="translate(-800 -439)"><rect width="30" height="30" transform="translate(800 439)" fill="none"/><path d="M535-102.5A11.827,11.827,0,0,0,524-95a11.827,11.827,0,0,0,11,7.5A11.827,11.827,0,0,0,546-95a11.827,11.827,0,0,0-11-7.5ZM535-90a5,5,0,0,1-5-5,5,5,0,0,1,5-5,5,5,0,0,1,5,5,5,5,0,0,1-5,5Zm0-8a3,3,0,0,0-3,3,3,3,0,0,0,3,3,3,3,0,0,0,3-3,3,3,0,0,0-3-3Z" transform="translate(280 549.5)" fill="#d9d9d9" fill-rule="evenodd"/></g></svg>