<svg xmlns="http://www.w3.org/2000/svg" width="30" height="30" viewBox="0 0 30 30"><g transform="translate(-250 -539)"><rect width="30" height="30" transform="translate(250 539)" fill="none"/><path d="M92.953-7.267Q88-7.8,88-12c0-4.2,2.536-5.93,4.645-6.984A4.683,4.683,0,0,0,95.083-23q3.3,1.859,3.771,4.187a5.124,5.124,0,0,1-.963,4.258,2.673,2.673,0,0,0,2.267-1.277,6.215,6.215,0,0,0,.831-2.1q3.079,4.734,1.444,7.149A11.986,11.986,0,0,1,98.375-7q-2.941-1.323-3.668-2.805a5.179,5.179,0,0,1-.2-3.595,3.6,3.6,0,0,0-2.782,2.616A3.812,3.812,0,0,0,92.953-7.267Z" transform="translate(170 569)" fill="#d9d9d9" fill-rule="evenodd"/></g></svg>