<svg xmlns="http://www.w3.org/2000/svg" width="30" height="30" viewBox="0 0 30 30"><g transform="translate(-350 -539)"><rect width="30" height="30" transform="translate(350 539)" fill="none"/><path d="M179-16a2.987,2.987,0,0,0,2.99-3A2.987,2.987,0,0,0,179-22a3,3,0,0,0-3,3,3,3,0,0,0,3,3Zm-8,0a2.987,2.987,0,0,0,2.99-3A2.987,2.987,0,0,0,171-22a3,3,0,0,0-3,3,3,3,0,0,0,3,3Zm0,2c-2.33,0-7,1.17-7,3.5V-8h14v-2.5c0-2.33-4.67-3.5-7-3.5Zm8,0c-.29,0-.62.02-.97.05A4.22,4.22,0,0,1,180-10.5V-8h6v-2.5c0-2.33-4.67-3.5-7-3.5Z" transform="translate(190 569)" fill="#d9d9d9" fill-rule="evenodd"/></g></svg>