<svg xmlns="http://www.w3.org/2000/svg" width="30" height="30" viewBox="0 0 30 30"><g transform="translate(-400 -489)"><rect width="30" height="30" transform="translate(400 489)" fill="none"/><path d="M209-57a2.006,2.006,0,0,0-2,2,2.006,2.006,0,0,0,2,2,2.006,2.006,0,0,0,2-2,2.006,2.006,0,0,0-2-2Zm12,0a2.006,2.006,0,0,0-2,2,2.006,2.006,0,0,0,2,2,2.006,2.006,0,0,0,2-2,2.006,2.006,0,0,0-2-2Zm-6,0a2.006,2.006,0,0,0-2,2,2.006,2.006,0,0,0,2,2,2.006,2.006,0,0,0,2-2,2.006,2.006,0,0,0-2-2Z" transform="translate(200 559)" fill="#d9d9d9" fill-rule="evenodd"/></g></svg>