<svg xmlns="http://www.w3.org/2000/svg" width="30" height="30" viewBox="0 0 30 30">
    <g transform="translate(-3997.999 -3796)">
        <path d="M58.5-293h-.79l-.28-.27A6.471,6.471,0,0,0,59-297.5a6.5,6.5,0,0,0-6.5-6.5,6.5,6.5,0,0,0-6.5,6.5,6.5,6.5,0,0,0,6.5,6.5,6.471,6.471,0,0,0,4.23-1.57l.27.28v.79l5,4.99L63.49-288l-4.99-5Zm-6,0a4.494,4.494,0,0,1-4.5-4.5,4.494,4.494,0,0,1,4.5-4.5,4.494,4.494,0,0,1,4.5,4.5,4.494,4.494,0,0,1-4.5,4.5Z"
              transform="translate(3959 4106)"/>
    </g>
</svg>
